<?xml version="1.0" standalone="no"?>
<!DOCTYPE svg PUBLIC "-//W3C//DTD SVG 20010904//EN"
 "http://www.w3.org/TR/2001/REC-SVG-20010904/DTD/svg10.dtd">
<svg version="1.0" xmlns="http://www.w3.org/2000/svg"
 width="240.000000pt" height="240.000000pt" viewBox="0 0 240.000000 240.000000"
 preserveAspectRatio="xMidYMid meet">
<metadata>
Created by potrace 1.14, written by Peter Selinger 2001-2017
</metadata>
<g transform="translate(0.000000,240.000000) scale(0.100000,-0.100000)"
fill="#000000" stroke="none">
<path d="M122 2369 c-11 -17 -10 -34 3 -100 9 -43 14 -83 11 -88 -4 -5 -2 -11
4 -13 6 -2 11 -20 12 -41 1 -20 5 -37 10 -37 5 0 6 -4 3 -10 -3 -5 -2 -10 2
-10 5 0 9 -30 8 -67 -1 -38 3 -81 8 -98 16 -57 29 -203 20 -219 -12 -18 -13
-45 -4 -51 5 -3 7 -14 4 -25 -4 -17 0 -20 25 -20 28 0 33 -5 49 -50 10 -27 21
-50 25 -50 5 0 8 -11 8 -25 0 -13 8 -29 18 -34 9 -6 13 -11 7 -11 -5 0 -4 -4
4 -9 17 -11 24 -41 9 -41 -5 0 -2 -7 7 -17 15 -15 15 -17 1 -25 -9 -5 -14 -13
-11 -19 4 -5 3 -15 -2 -21 -8 -13 -13 -33 -15 -55 -1 -7 -5 -13 -10 -13 -4 0
-8 -9 -8 -20 0 -11 -9 -28 -20 -38 -19 -15 -21 -27 -19 -127 4 -179 19 -315
36 -315 9 0 13 -6 9 -15 -3 -8 2 -19 11 -23 10 -6 14 -16 10 -26 -4 -11 2 -27
17 -43 20 -21 23 -31 15 -50 -8 -21 -3 -30 36 -71 25 -26 45 -54 45 -64 0 -27
11 -48 26 -48 8 0 14 -6 14 -14 0 -8 6 -17 13 -19 9 -4 8 -8 -3 -17 -12 -9
-11 -10 7 -5 16 4 27 0 40 -16 10 -11 24 -27 31 -34 6 -8 12 -18 12 -24 0 -18
23 -61 32 -61 5 0 35 -21 66 -46 60 -49 181 -115 222 -122 13 -2 29 -7 35 -12
15 -12 625 -12 625 0 0 5 19 14 43 21 23 6 49 17 57 24 30 25 77 44 98 38 16
-4 22 -1 22 11 0 9 4 16 9 16 5 0 11 9 14 20 3 11 9 20 14 19 20 -4 34 2 28
12 -4 6 2 13 14 16 12 3 21 12 21 19 0 8 5 14 11 14 5 0 7 5 4 10 -3 6 1 17 9
26 9 9 13 21 9 27 -4 6 0 8 9 5 15 -6 48 23 48 41 0 5 5 11 11 13 6 2 12 16
12 31 1 15 6 27 11 27 4 0 5 7 2 15 -3 9 1 18 10 22 10 4 14 13 10 29 -3 12
-1 26 4 29 6 4 8 10 5 14 -2 5 7 20 22 35 14 14 21 26 14 26 -6 0 -10 11 -9
25 1 14 6 25 9 25 4 0 7 20 7 45 0 28 8 58 21 79 21 34 28 100 12 110 -5 3
-11 29 -13 58 -3 29 -9 61 -13 71 -5 12 -3 17 9 17 11 0 16 8 15 28 -2 23 -2
24 -6 4 -5 -28 -29 -29 -38 -1 -4 11 -5 23 -2 25 3 3 -2 29 -9 57 -8 29 -17
60 -19 71 -2 10 -7 21 -10 24 -2 3 0 11 6 18 6 8 7 14 0 18 -6 4 -2 20 11 42
15 26 21 56 24 117 1 45 5 89 7 97 16 51 20 60 30 60 8 0 8 3 0 11 -7 7 -8 18
-3 28 12 20 30 100 40 171 4 30 8 51 9 46 0 -5 8 -3 16 4 8 7 15 9 15 5 0 -4
12 5 26 20 18 20 27 41 28 69 1 23 8 54 14 69 14 34 15 87 2 121 -12 31 -46
52 -64 37 -9 -7 -16 -7 -24 1 -9 9 -18 4 -38 -20 -15 -18 -32 -32 -39 -32 -16
0 -93 -38 -100 -50 -4 -6 -11 -8 -16 -5 -5 4 -9 1 -9 -5 0 -7 -7 -10 -15 -6
-8 3 -15 2 -15 -3 0 -16 -142 -101 -169 -101 -28 0 -56 -25 -56 -49 0 -8 -9
-15 -20 -17 -11 -2 -24 -9 -30 -16 -6 -7 -25 -24 -44 -37 -27 -19 -37 -21 -57
-12 -13 6 -31 8 -39 5 -8 -4 -15 -2 -15 3 0 5 -8 9 -17 10 -48 4 -79 9 -91 16
-6 5 -12 5 -12 1 0 -3 -7 -1 -15 6 -9 7 -28 14 -43 15 -15 1 -54 7 -87 14 -70
16 -160 9 -185 -14 -9 -8 -27 -18 -39 -20 -11 -3 -30 -7 -41 -9 -11 -3 -26 -8
-33 -13 -13 -8 -29 -12 -69 -16 -16 -1 -28 -5 -28 -8 0 -18 -36 -17 -66 2 -19
11 -34 17 -34 12 0 -9 -87 82 -92 97 -4 11 -64 85 -105 128 -19 20 -30 41 -28
53 2 11 -2 19 -10 19 -7 0 -17 9 -20 20 -4 11 -11 18 -16 15 -5 -4 -9 -2 -9 4
0 12 -89 101 -101 101 -6 0 -7 5 -4 10 3 6 -1 10 -9 10 -8 0 -26 10 -40 23
-13 12 -40 35 -60 51 -20 16 -32 34 -29 42 4 10 0 12 -11 8 -9 -3 -16 -1 -16
5 0 20 -64 13 -78 -10z"/>
</g>
</svg>
